<mxfile host="app.diagrams.net" modified="2023-10-15T11:38:35.754Z" agent="Mozilla/5.0 (Windows NT 10.0; Win64; x64) AppleWebKit/537.36 (KHTML, like Gecko) Chrome/116.0.0.0 Safari/537.36 OPR/102.0.0.0" etag="iDYzuPEAwLfZTxTYqY8C" version="22.0.4" type="github">
  <diagram name="Page-1" id="oQ5j7Gt--vJ0Ih5FULHn">
    <mxGraphModel dx="1393" dy="797" grid="1" gridSize="10" guides="1" tooltips="1" connect="1" arrows="1" fold="1" page="1" pageScale="1" pageWidth="850" pageHeight="1100" math="0" shadow="0">
      <root>
        <mxCell id="0" />
        <mxCell id="1" parent="0" />
        <mxCell id="yfwejGi16OCFx3HZPxXs-3" value="Dane_meterologiczne" style="whiteSpace=wrap;html=1;align=center;" vertex="1" parent="1">
          <mxGeometry x="480" y="370" width="140" height="40" as="geometry" />
        </mxCell>
        <mxCell id="yfwejGi16OCFx3HZPxXs-4" value="Miejscowość" style="whiteSpace=wrap;html=1;align=center;" vertex="1" parent="1">
          <mxGeometry x="270" y="370" width="100" height="40" as="geometry" />
        </mxCell>
        <mxCell id="yfwejGi16OCFx3HZPxXs-6" value="Nazwa_Miejscowości" style="ellipse;whiteSpace=wrap;html=1;align=center;fontStyle=4;" vertex="1" parent="1">
          <mxGeometry x="90" y="270" width="130" height="50" as="geometry" />
        </mxCell>
        <mxCell id="yfwejGi16OCFx3HZPxXs-7" value="Województwo" style="ellipse;whiteSpace=wrap;html=1;align=center;fontStyle=4;" vertex="1" parent="1">
          <mxGeometry x="90" y="360" width="100" height="40" as="geometry" />
        </mxCell>
        <mxCell id="yfwejGi16OCFx3HZPxXs-8" value="Współrzędne_geograficzne" style="ellipse;whiteSpace=wrap;html=1;align=center;fontStyle=4;" vertex="1" parent="1">
          <mxGeometry x="75" y="450" width="160" height="60" as="geometry" />
        </mxCell>
        <mxCell id="yfwejGi16OCFx3HZPxXs-9" value="Temperatura" style="ellipse;whiteSpace=wrap;html=1;align=center;" vertex="1" parent="1">
          <mxGeometry x="620" y="210" width="100" height="40" as="geometry" />
        </mxCell>
        <mxCell id="yfwejGi16OCFx3HZPxXs-11" value="Ciśnienie" style="ellipse;whiteSpace=wrap;html=1;align=center;" vertex="1" parent="1">
          <mxGeometry x="680" y="460" width="100" height="40" as="geometry" />
        </mxCell>
        <mxCell id="yfwejGi16OCFx3HZPxXs-12" value="Data_pomiaru" style="ellipse;whiteSpace=wrap;html=1;align=center;" vertex="1" parent="1">
          <mxGeometry x="530" y="520" width="100" height="40" as="geometry" />
        </mxCell>
        <mxCell id="yfwejGi16OCFx3HZPxXs-10" value="Wilgotność" style="ellipse;whiteSpace=wrap;html=1;align=center;" vertex="1" parent="1">
          <mxGeometry x="690" y="340" width="100" height="40" as="geometry" />
        </mxCell>
        <mxCell id="yfwejGi16OCFx3HZPxXs-25" value="" style="endArrow=none;html=1;rounded=0;entryX=0.5;entryY=1;entryDx=0;entryDy=0;exitX=0.694;exitY=0.083;exitDx=0;exitDy=0;exitPerimeter=0;" edge="1" parent="1" source="yfwejGi16OCFx3HZPxXs-8" target="yfwejGi16OCFx3HZPxXs-4">
          <mxGeometry relative="1" as="geometry">
            <mxPoint x="190" y="450" as="sourcePoint" />
            <mxPoint x="395" y="460" as="targetPoint" />
          </mxGeometry>
        </mxCell>
        <mxCell id="yfwejGi16OCFx3HZPxXs-26" value="" style="endArrow=none;html=1;rounded=0;entryX=0;entryY=0.25;entryDx=0;entryDy=0;" edge="1" parent="1" source="yfwejGi16OCFx3HZPxXs-7" target="yfwejGi16OCFx3HZPxXs-4">
          <mxGeometry relative="1" as="geometry">
            <mxPoint x="200" y="380" as="sourcePoint" />
            <mxPoint x="270" y="390" as="targetPoint" />
          </mxGeometry>
        </mxCell>
        <mxCell id="yfwejGi16OCFx3HZPxXs-27" value="" style="endArrow=none;html=1;rounded=0;entryX=0.5;entryY=0;entryDx=0;entryDy=0;exitX=1;exitY=0.5;exitDx=0;exitDy=0;" edge="1" parent="1" source="yfwejGi16OCFx3HZPxXs-6" target="yfwejGi16OCFx3HZPxXs-4">
          <mxGeometry relative="1" as="geometry">
            <mxPoint x="220" y="290" as="sourcePoint" />
            <mxPoint x="380" y="290" as="targetPoint" />
          </mxGeometry>
        </mxCell>
        <mxCell id="yfwejGi16OCFx3HZPxXs-29" value="" style="edgeStyle=entityRelationEdgeStyle;fontSize=12;html=1;endArrow=ERoneToMany;startArrow=ERmandOne;rounded=0;exitX=1;exitY=0.5;exitDx=0;exitDy=0;" edge="1" parent="1" source="yfwejGi16OCFx3HZPxXs-4">
          <mxGeometry width="100" height="100" relative="1" as="geometry">
            <mxPoint x="380" y="490" as="sourcePoint" />
            <mxPoint x="480" y="390" as="targetPoint" />
          </mxGeometry>
        </mxCell>
        <mxCell id="yfwejGi16OCFx3HZPxXs-32" value="" style="endArrow=none;html=1;rounded=0;entryX=0.02;entryY=0.725;entryDx=0;entryDy=0;entryPerimeter=0;exitX=0.457;exitY=-0.025;exitDx=0;exitDy=0;exitPerimeter=0;" edge="1" parent="1" source="yfwejGi16OCFx3HZPxXs-3" target="yfwejGi16OCFx3HZPxXs-9">
          <mxGeometry relative="1" as="geometry">
            <mxPoint x="450" y="260" as="sourcePoint" />
            <mxPoint x="610" y="260" as="targetPoint" />
          </mxGeometry>
        </mxCell>
        <mxCell id="yfwejGi16OCFx3HZPxXs-33" value="" style="endArrow=none;html=1;rounded=0;exitX=1;exitY=0.5;exitDx=0;exitDy=0;entryX=0.01;entryY=0.675;entryDx=0;entryDy=0;entryPerimeter=0;" edge="1" parent="1" source="yfwejGi16OCFx3HZPxXs-3" target="yfwejGi16OCFx3HZPxXs-10">
          <mxGeometry relative="1" as="geometry">
            <mxPoint x="530" y="359.5" as="sourcePoint" />
            <mxPoint x="690" y="359.5" as="targetPoint" />
          </mxGeometry>
        </mxCell>
        <mxCell id="yfwejGi16OCFx3HZPxXs-34" value="" style="endArrow=none;html=1;rounded=0;entryX=0;entryY=0.5;entryDx=0;entryDy=0;exitX=0.807;exitY=1;exitDx=0;exitDy=0;exitPerimeter=0;" edge="1" parent="1" source="yfwejGi16OCFx3HZPxXs-3" target="yfwejGi16OCFx3HZPxXs-11">
          <mxGeometry relative="1" as="geometry">
            <mxPoint x="500" y="460" as="sourcePoint" />
            <mxPoint x="660" y="460" as="targetPoint" />
          </mxGeometry>
        </mxCell>
        <mxCell id="yfwejGi16OCFx3HZPxXs-35" value="" style="endArrow=none;html=1;rounded=0;entryX=0.5;entryY=0;entryDx=0;entryDy=0;exitX=0.5;exitY=1;exitDx=0;exitDy=0;" edge="1" parent="1" source="yfwejGi16OCFx3HZPxXs-3" target="yfwejGi16OCFx3HZPxXs-12">
          <mxGeometry relative="1" as="geometry">
            <mxPoint x="440" y="410" as="sourcePoint" />
            <mxPoint x="600" y="410" as="targetPoint" />
          </mxGeometry>
        </mxCell>
      </root>
    </mxGraphModel>
  </diagram>
</mxfile>
